<?xml version="1.0" standalone="no"?><!DOCTYPE svg PUBLIC "-//W3C//DTD SVG 1.1//EN" "http://www.w3.org/Graphics/SVG/1.1/DTD/svg11.dtd"><svg t="1554210735745" class="icon" style="" viewBox="0 0 1024 1024" version="1.1" xmlns="http://www.w3.org/2000/svg" p-id="8182" xmlns:xlink="http://www.w3.org/1999/xlink" width="200" height="200"><defs><style type="text/css"></style></defs><path d="M512 1024C229.23 1024 0 794.77 0 512S229.23 0 512 0s512 229.23 512 512-229.23 512-512 512z m56.132-751.556l145.21 38.214 38.214 145.21a13.46 13.46 0 0 1-3.5 12.942L468.81 748.06a13.46 13.46 0 0 1-19.034 0l-173.834-173.834a13.46 13.46 0 0 1 0-19.034l279.248-279.246a13.46 13.46 0 0 1 12.94-3.5z m12.216-46.42a61.46 61.46 0 0 0-59.1 15.98L242 521.248c-24.002 24-24.002 62.914 0 86.916l173.832 173.832c24 24.002 62.916 24.002 86.916 0L782 502.752a61.46 61.46 0 0 0 15.978-59.1l-45.34-172.288-172.288-45.34zM608 448c-17.674 0-32-14.326-32-32s14.326-32 32-32 32 14.326 32 32-14.326 32-32 32z m0 48c44.182 0 80-35.818 80-80s-35.818-80-80-80-80 35.818-80 80 35.818 80 80 80z" fill="" p-id="8183"></path></svg>