<?xml version="1.0" standalone="no"?><!DOCTYPE svg PUBLIC "-//W3C//DTD SVG 1.1//EN" "http://www.w3.org/Graphics/SVG/1.1/DTD/svg11.dtd"><svg t="1555149995540" class="icon" style="" viewBox="0 0 1024 1024" version="1.1" xmlns="http://www.w3.org/2000/svg" p-id="6350" xmlns:xlink="http://www.w3.org/1999/xlink" width="200" height="200"><defs><style type="text/css"></style></defs><path d="M270.628571 705.828571c-14.628571 0-29.257143-14.628571-29.257142-29.257142s14.628571-29.257143 29.257142-29.257143h482.742858c14.628571 0 29.257143 14.628571 29.257142 29.257143s-14.628571 29.257143-29.257142 29.257142H270.628571z m171.885715-482.742857c-3.657143 0-18.285714-14.628571-18.285715-29.257143s14.628571-29.257143 18.285715-29.257142h138.971428c3.657143 0 18.285714 14.628571 18.285715 29.257142s-14.628571 29.257143-18.285715 29.257143h-138.971428zM270.628571 160.914286c14.628571 0 29.257143 14.628571 29.257143 29.257143s-14.628571 29.257143-29.257143 29.257142H204.8c-7.314286 0-10.971429 0-14.628571 3.657143-7.314286 3.657143-10.971429 7.314286-14.628572 10.971429-3.657143 3.657143-7.314286 7.314286-7.314286 10.971428-3.657143 7.314286-3.657143 10.971429-3.657142 18.285715v530.285714c0 7.314286 0 10.971429 3.657142 14.628571 3.657143 3.657143 3.657143 10.971429 7.314286 14.628572 3.657143 3.657143 7.314286 7.314286 14.628572 7.314286 3.657143 3.657143 10.971429 3.657143 14.628571 3.657142h618.057143c7.314286 0 10.971429 0 14.628571-3.657142 3.657143-3.657143 10.971429-3.657143 14.628572-7.314286 3.657143-3.657143 7.314286-7.314286 7.314285-14.628572 3.657143-3.657143 3.657143-10.971429 3.657143-14.628571V263.314286c0-7.314286 0-10.971429-3.657143-14.628572-3.657143-3.657143-3.657143-10.971429-7.314285-14.628571-3.657143-3.657143-7.314286-7.314286-14.628572-7.314286-3.657143-3.657143-10.971429-3.657143-14.628571-3.657143h-65.828572c-14.628571 0-29.257143-14.628571-29.257142-29.257143s14.628571-29.257143 29.257142-29.257142h65.828572c14.628571 0 25.6 3.657143 40.228571 7.314285 10.971429 3.657143 21.942857 10.971429 32.914286 21.942857 7.314286 7.314286 14.628571 18.285714 18.285714 29.257143 3.657143 10.971429 7.314286 25.6 7.314286 40.228572v530.285714c0 14.628571-3.657143 25.6-7.314286 40.228571-3.657143 10.971429-10.971429 21.942857-21.942857 32.914286-10.971429 10.971429-18.285714 18.285714-32.914286 21.942857-10.971429 3.657143-25.6 7.314286-40.228571 7.314286H204.8c-14.628571 0-25.6-3.657143-40.228571-7.314286-10.971429-3.657143-21.942857-10.971429-32.914286-21.942857-10.971429-10.971429-18.285714-18.285714-21.942857-32.914286-3.657143-10.971429-7.314286-25.6-7.314286-40.228571V263.314286c0-14.628571 3.657143-25.6 7.314286-40.228572 7.314286-10.971429 14.628571-21.942857 25.6-32.914285 10.971429-10.971429 18.285714-18.285714 32.914285-21.942858 10.971429-3.657143 21.942857-7.314286 36.571429-7.314285h65.828571z m106.057143-32.914286c14.628571 0 29.257143 14.628571 29.257143 29.257143v120.685714c0 14.628571-14.628571 29.257143-29.257143 29.257143s-29.257143-14.628571-29.257143-29.257143V157.257143c0-14.628571 14.628571-29.257143 29.257143-29.257143z m277.942857 0c14.628571 0 29.257143 14.628571 29.257143 29.257143v120.685714c0 14.628571-14.628571 29.257143-29.257143 29.257143s-29.257143-14.628571-29.257142-29.257143V157.257143c0-14.628571 10.971429-29.257143 29.257142-29.257143zM270.628571 508.342857c-14.628571 0-29.257143-14.628571-29.257142-29.257143s14.628571-29.257143 29.257142-29.257143h482.742858c14.628571 0 29.257143 14.628571 29.257142 29.257143s-14.628571 29.257143-29.257142 29.257143H270.628571z m0 0" p-id="6351"></path></svg>