<?xml version="1.0" standalone="no"?><!DOCTYPE svg PUBLIC "-//W3C//DTD SVG 1.1//EN" "http://www.w3.org/Graphics/SVG/1.1/DTD/svg11.dtd"><svg t="1555149882484" class="icon" style="" viewBox="0 0 1121 1024" version="1.1" xmlns="http://www.w3.org/2000/svg" p-id="6230" xmlns:xlink="http://www.w3.org/1999/xlink" width="218.9453125" height="200"><defs><style type="text/css"></style></defs><path d="M219.428571 765.561905c-19.504762 0-39.009524-19.504762-39.009523-39.009524s19.504762-39.009524 39.009523-39.009524h633.904762c19.504762 0 39.009524 19.504762 39.009524 39.009524s-19.504762 39.009524-39.009524 39.009524h-633.904762zM448.609524 126.780952c-4.87619 0-24.380952-19.504762-24.380953-39.009523s19.504762-39.009524 24.380953-39.009524h180.419047c4.87619 0 24.380952 19.504762 24.380953 39.009524s-19.504762 39.009524-24.380953 39.009523H448.609524zM224.304762 43.885714c19.504762 0 39.009524 19.504762 39.009524 39.009524s-19.504762 39.009524-39.009524 39.009524H136.533333c-9.752381 0-14.628571 0-19.504762 4.87619-9.752381 4.87619-14.628571 9.752381-24.380952 14.628572-4.87619 4.87619-4.87619 9.752381-9.752381 14.628571-4.87619 9.752381-4.87619 14.628571-4.87619 24.380953v702.171428c0 9.752381 0 14.628571 4.87619 19.504762 4.87619 4.87619 4.87619 14.628571 9.752381 19.504762 4.87619 4.87619 9.752381 9.752381 19.504762 9.752381 4.87619 4.87619 14.628571 4.87619 19.504762 4.87619h809.447619c9.752381 0 14.628571 0 19.504762-4.87619 4.87619-4.87619 14.628571-4.87619 19.504762-9.752381 4.87619-4.87619 9.752381-9.752381 9.752381-19.504762 4.87619-4.87619 4.87619-14.628571 4.87619-19.504762V180.419048c0-9.752381 0-14.628571-4.87619-19.504762-4.87619-4.87619-4.87619-14.628571-9.752381-19.504762-4.87619-4.87619-9.752381-9.752381-19.504762-9.752381-4.87619-4.87619-14.628571-4.87619-19.504762-4.876191h-87.771429c-19.504762 0-39.009524-19.504762-39.009523-39.009523s19.504762-39.009524 39.009523-39.009524h87.771429c19.504762 0 34.133333 4.87619 53.638095 9.752381 14.628571 4.87619 29.257143 14.628571 43.885714 29.257143 14.628571 14.628571 24.380952 24.380952 29.257143 43.885714 4.87619 14.628571 9.752381 29.257143 9.752381 48.761905v702.171428c0 19.504762-4.87619 34.133333-9.752381 53.638095-4.87619 14.628571-14.628571 29.257143-29.257143 43.885715-14.628571 14.628571-24.380952 24.380952-43.885714 29.257143-14.628571 4.87619-34.133333 9.752381-53.638095 9.752381H136.533333c-19.504762 0-34.133333-4.87619-53.638095-9.752381-14.628571-4.87619-29.257143-14.628571-43.885714-29.257143-14.628571-14.628571-24.380952-24.380952-29.257143-43.885715-4.87619-19.504762-9.752381-34.133333-9.752381-53.638095V180.419048c0-19.504762 4.87619-34.133333 9.752381-53.638096l29.257143-43.885714c14.628571-14.628571 24.380952-24.380952 43.885714-29.257143C97.52381 48.761905 117.028571 43.885714 136.533333 43.885714h87.771429zM360.838095 0c19.504762 0 39.009524 19.504762 39.009524 39.009524v160.914286c0 19.504762-19.504762 39.009524-39.009524 39.009523s-39.009524-19.504762-39.009524-39.009523V39.009524c0-19.504762 14.628571-39.009524 39.009524-39.009524z m360.838095 0c19.504762 0 39.009524 19.504762 39.009524 39.009524v160.914286c0 19.504762-19.504762 39.009524-39.009524 39.009523s-39.009524-19.504762-39.009523-39.009523V39.009524c0-19.504762 19.504762-39.009524 39.009523-39.009524zM219.428571 507.12381c-19.504762 0-39.009524-19.504762-39.009523-39.009524s19.504762-39.009524 39.009523-39.009524h633.904762c19.504762 0 39.009524 19.504762 39.009524 39.009524s-19.504762 39.009524-39.009524 39.009524h-633.904762z" fill="#FFFFFF" p-id="6231"></path><path d="M243.809524 765.561905c-19.504762 0-39.009524-19.504762-39.009524-39.009524s19.504762-39.009524 39.009524-39.009524h633.904762c19.504762 0 39.009524 19.504762 39.009524 39.009524s-19.504762 39.009524-39.009524 39.009524H243.809524zM468.114286 126.780952c-4.87619 0-24.380952-19.504762-24.380953-39.009523s19.504762-39.009524 24.380953-39.009524h180.419047c4.87619 0 24.380952 19.504762 24.380953 39.009524s-19.504762 39.009524-24.380953 39.009523H468.114286zM243.809524 43.885714c19.504762 0 39.009524 19.504762 39.009524 39.009524s-19.504762 39.009524-39.009524 39.009524H156.038095c-9.752381 0-14.628571 0-19.504762 4.87619-9.752381 4.87619-14.628571 9.752381-19.504762 14.628572-4.87619 4.87619-9.752381 9.752381-9.752381 14.628571-4.87619 9.752381-4.87619 14.628571-4.87619 24.380953v702.171428c0 9.752381 0 14.628571 4.87619 19.504762 4.87619 4.87619 4.87619 14.628571 9.752381 19.504762 4.87619 4.87619 9.752381 9.752381 19.504762 9.752381 4.87619 4.87619 14.628571 4.87619 19.504762 4.87619h809.447619c9.752381 0 14.628571 0 19.504762-4.87619 4.87619-4.87619 14.628571-4.87619 19.504762-9.752381 4.87619-4.87619 9.752381-9.752381 9.752381-19.504762 4.87619-4.87619 4.87619-14.628571 4.876191-19.504762V180.419048c0-9.752381 0-14.628571-4.876191-19.504762-4.87619-4.87619-4.87619-14.628571-9.752381-19.504762-4.87619-4.87619-9.752381-9.752381-19.504762-9.752381-4.87619-4.87619-14.628571-4.87619-19.504762-4.876191H877.714286c-19.504762 0-39.009524-19.504762-39.009524-39.009523s19.504762-39.009524 39.009524-39.009524h87.771428c19.504762 0 34.133333 4.87619 53.638096 9.752381 14.628571 4.87619 29.257143 14.628571 43.885714 29.257143 9.752381 9.752381 19.504762 24.380952 24.380952 39.009523 4.87619 14.628571 9.752381 34.133333 9.752381 53.638096v702.171428c0 19.504762-4.87619 34.133333-9.752381 53.638095-4.87619 14.628571-14.628571 29.257143-29.257143 43.885715-14.628571 14.628571-24.380952 24.380952-43.885714 29.257143-14.628571 4.87619-34.133333 9.752381-53.638095 9.752381H156.038095c-19.504762 0-34.133333-4.87619-53.638095-9.752381-14.628571-4.87619-29.257143-14.628571-43.885714-29.257143-14.628571-14.628571-24.380952-24.380952-29.257143-43.885715-4.87619-14.628571-9.752381-34.133333-9.752381-53.638095V180.419048c0-19.504762 4.87619-34.133333 9.752381-53.638096 9.752381-14.628571 19.504762-29.257143 34.133333-43.885714 14.628571-14.628571 24.380952-24.380952 43.885714-29.257143 14.628571-4.87619 29.257143-9.752381 48.761905-9.752381H243.809524zM380.342857 0c19.504762 0 39.009524 19.504762 39.009524 39.009524v160.914286c0 19.504762-19.504762 39.009524-39.009524 39.009523S341.333333 219.428571 341.333333 199.92381V39.009524c0-19.504762 19.504762-39.009524 39.009524-39.009524z m365.714286 0c19.504762 0 39.009524 19.504762 39.009524 39.009524v160.914286c0 19.504762-19.504762 39.009524-39.009524 39.009523s-39.009524-19.504762-39.009524-39.009523V39.009524c0-19.504762 14.628571-39.009524 39.009524-39.009524zM243.809524 507.12381c-19.504762 0-39.009524-19.504762-39.009524-39.009524s19.504762-39.009524 39.009524-39.009524h633.904762c19.504762 0 39.009524 19.504762 39.009524 39.009524s-19.504762 39.009524-39.009524 39.009524H243.809524z" fill="" p-id="6232"></path></svg>