<?xml version="1.0" standalone="no"?><!DOCTYPE svg PUBLIC "-//W3C//DTD SVG 1.1//EN" "http://www.w3.org/Graphics/SVG/1.1/DTD/svg11.dtd"><svg t="1554296045709" class="icon" style="" viewBox="0 0 1024 1024" version="1.1" xmlns="http://www.w3.org/2000/svg" p-id="2859" xmlns:xlink="http://www.w3.org/1999/xlink" width="200" height="200"><defs><style type="text/css"></style></defs><path d="M511.999996 0.008186c-282.767132 0-511.995907 229.228775-511.995907 511.995907s229.228775 511.995907 511.995907 511.995907 511.995907-229.228775 511.995907-511.995907S794.767128 0.008186 511.999996 0.008186zM297.694095 290.030559l428.602591 0 0 48.284703L297.694095 338.315262 297.694095 290.030559zM689.039131 388.67523l0 188.748828L334.951651 577.424058 334.951651 388.67523 689.039131 388.67523zM738.435145 733.969441 285.57201 733.969441l0-47.758724 131.969661 0c-12.078083-25.390273-27.842115-52.671617-47.382147-81.986269l47.382147-18.777669c18.804275 27.842115 35.567054 61.4567 50.429553 100.763938l89.6406 0c17.744129-30.329772 33.351596-63.96994 46.742581-100.763938l51.516304 18.777669c-13.478989 31.048133-28.018124 58.400085-43.422975 81.986269l125.987413 0L738.435145 733.969441z" p-id="2860"></path><path d="M386.301156 436.924117l251.913427 0 0 92.26845-251.913427 0 0-92.26845Z" p-id="2861"></path></svg>