<?xml version="1.0" standalone="no"?><!DOCTYPE svg PUBLIC "-//W3C//DTD SVG 1.1//EN" "http://www.w3.org/Graphics/SVG/1.1/DTD/svg11.dtd"><svg t="1554627066729" class="icon" style="" viewBox="0 0 1024 1024" version="1.1" xmlns="http://www.w3.org/2000/svg" p-id="2016" xmlns:xlink="http://www.w3.org/1999/xlink" width="200" height="200"><defs><style type="text/css"></style></defs><path d="M372.862345 220.701473c-133.654618-24.674699-239.207497 1.370817-281.702812 74.024096-31.528782 54.147256-22.618474 126.800535 21.933066 203.566265 3.427041 6.854083 12.337349 8.910308 18.506024 4.797858 6.854083-3.427041 8.910308-12.337349 4.797858-18.506024C96.6428 415.35743 89.103309 352.985274 114.463416 308.433735 149.419239 248.117805 244.005584 224.813922 367.379078 247.432396c7.539491 1.370817 14.393574-3.427041 15.764391-10.966533s-2.741633-14.393574-10.281124-15.76439zM183.004246 592.192771c54.147256 59.630522 124.058902 115.148594 204.251673 161.070951 193.970549 111.721553 400.278447 141.879518 502.404284 72.653279 6.168675-4.11245 7.539491-13.022758 3.427041-19.191432-4.11245-6.168675-13.022758-7.539491-19.191432-3.427042-91.159304 62.372155-287.186078 33.585007-472.931727-73.338688C323.512947 685.4083 254.972117 631.261044 202.881086 573.686747c-4.797858-5.483266-13.708166-6.168675-19.191432-0.685408-5.483266 4.797858-6.168675 13.708166-0.685408 19.191432z" p-id="2017" fill="#097e95"></path><path d="M856.760604 575.742972c87.732262-103.496653 117.890228-207.678715 76.080322-280.331995-30.843373-53.461847-96.64257-81.563588-183.004016-82.934404-7.539491 0-13.708166 6.168675-13.708166 13.708166s6.168675 13.708166 13.708166 13.708166c78.136546 0.685408 134.340027 25.360107 159.700133 69.226238 34.955823 60.31593 7.539491 153.531459-73.338688 248.803213-4.797858 5.483266-4.11245 14.393574 1.370817 19.191432 5.483266 4.797858 14.393574 4.11245 19.191432-1.370816zM631.946682 224.813922C553.124728 241.94913 468.819507 274.848728 387.941327 321.456493 187.116695 437.290495 56.889118 607.957162 74.709734 731.330656c1.370817 7.539491 8.2249 12.337349 15.764391 11.651941 7.539491-1.370817 12.337349-8.2249 11.651941-15.764391C85.676267 617.552878 209.735169 456.481928 401.649493 345.445783c78.821954-45.236948 160.385542-77.451138 236.465864-93.900937 7.539491-1.370817 12.337349-8.910308 10.281124-16.449799-2.056225-6.854083-8.910308-11.651941-16.449799-10.281125z" p-id="2018" fill="#097e95"></path><path d="M307.748556 817.006693c45.922356 127.485944 120.631861 206.307898 204.937082 206.307899 61.686747 0 117.890228-41.809906 162.441767-115.834003 4.11245-6.168675 2.056225-15.078983-4.797858-18.506024-6.168675-4.11245-15.078983-2.056225-18.506024 4.797858-39.753681 66.484605-88.417671 102.125837-139.137885 102.125837-69.911647 0-136.396252-69.911647-178.891566-188.487283-2.741633-6.854083-10.281124-10.966533-17.820616-8.224899-7.539491 2.741633-10.966533 10.966533-8.2249 17.820615z m418.099063-24.674698c23.98929-75.394913 36.32664-163.127175 36.32664-254.28648 0-226.870147-79.507363-422.896921-192.599732-472.931727-6.854083-2.741633-15.078983 0-17.820616 6.854083-2.741633 6.854083 0 15.078983 6.854083 17.820616 100.75502 44.551539 176.149933 230.297189 176.149933 448.257028 0 88.417671-12.337349 172.722892-34.955823 246.06158-2.056225 7.539491 2.056225 15.078983 8.910308 17.135208 6.854083 2.056225 14.393574-2.056225 17.135207-8.910308z m257.713521-13.708166c0-36.32664-29.472557-65.799197-65.799197-65.799197s-65.799197 29.472557-65.799197 65.799197 29.472557 65.799197 65.799197 65.799196c37.012048 0 65.799197-29.472557 65.799197-65.799196z m-27.416332 0c0 21.247657-17.135207 38.382865-38.382865 38.382864-21.247657 0-38.382865-17.135207-38.382865-38.382864s17.135207-38.382865 38.382865-38.382865c21.247657 0 38.382865 17.135207 38.382865 38.382865zM105.553108 844.423025c36.32664 0 65.799197-29.472557 65.799197-65.799196s-29.472557-65.799197-65.799197-65.799197-65.799197 29.472557-65.799197 65.799197 29.472557 65.799197 65.799197 65.799196z m0-27.416332c-21.247657 0-38.382865-17.135207-38.382865-38.382864s17.135207-38.382865 38.382865-38.382865 38.382865 17.135207 38.382865 38.382865-17.135207 38.382865-38.382865 38.382864z" p-id="2019" fill="#097e95"></path><path d="M512.685638 131.598394c36.32664 0 65.799197-29.472557 65.799197-65.799197S549.012278 0 512.685638 0s-65.799197 29.472557-65.799197 65.799197 29.472557 65.799197 65.799197 65.799197z m0-27.416332c-21.247657 0-38.382865-17.135207-38.382865-38.382865S491.437981 27.416332 512.685638 27.416332c21.247657 0 38.382865 17.135207 38.382865 38.382865s-17.820616 38.382865-38.382865 38.382865z m9.595716 480.471218c-25.360107 5.483266-50.720214-10.966533-56.203481-36.32664-5.483266-25.360107 10.966533-50.720214 36.32664-56.203481 25.360107-5.483266 50.720214 10.966533 56.203481 36.32664 5.483266 25.360107-10.281124 50.720214-36.32664 56.203481z" p-id="2020" fill="#097e95"></path></svg>