<?xml version="1.0" standalone="no"?><!DOCTYPE svg PUBLIC "-//W3C//DTD SVG 1.1//EN" "http://www.w3.org/Graphics/SVG/1.1/DTD/svg11.dtd"><svg t="1555232868044" class="icon" style="" viewBox="0 0 1024 1024" version="1.1" xmlns="http://www.w3.org/2000/svg" p-id="1990" xmlns:xlink="http://www.w3.org/1999/xlink" width="200" height="200"><defs><style type="text/css"></style></defs><path d="M1000 248q-23.008-56-66.016-99.008Q849.984 64 732.992 64q-64 0-121.504 28T512 171.008Q469.984 120 412.512 92T291.008 64q-116.992 0-200.992 86.016Q47.008 193.024 24 249.024-0.992 308.032 0 371.04q0.992 68.992 28.992 130.496T108 606.048q4.992 4 8.992 8 14.016 12 112.992 102.016 208 191.008 256.992 235.008 11.008 8.992 24.992 8.992t24.992-8.992q32.992-30.016 180.992-164.992 158.016-144 196-179.008 52-43.008 80.992-104.992t28.992-132q0-64-24-122.016z" fill="" p-id="1991"></path></svg>