<?xml version="1.0" standalone="no"?><!DOCTYPE svg PUBLIC "-//W3C//DTD SVG 1.1//EN" "http://www.w3.org/Graphics/SVG/1.1/DTD/svg11.dtd"><svg t="1554209905725" class="icon" style="" viewBox="0 0 1024 1024" version="1.1" xmlns="http://www.w3.org/2000/svg" p-id="2083" xmlns:xlink="http://www.w3.org/1999/xlink" width="200" height="200"><defs><style type="text/css"></style></defs><path d="M29.866667 682.666667l-4.266667-8.533334h128v12.8h-21.333333c-25.6 0-76.8 12.8-98.133334 17.066667L29.866667 682.666667z m328.533333 21.333333l-4.266667-12.8-34.133333-8.533333c-59.733333-4.266667-119.466667-64-119.466667-128 0-81.066667 59.733333-149.333333 136.533334-149.333334 64 0 136.533333 55.466667 136.533333 115.2v42.666667c0 76.8-85.333333 93.866667-85.333333 132.266667v4.266666c0 25.6 21.333333 42.666667 42.666666 42.666667h8.533334c34.133333 0 51.2-29.866667 51.2-64-12.8-4.266667-17.066667-4.266667-17.066667-17.066667 0-12.8 17.066667-25.6 29.866667-25.6 21.333333 0 29.866667 12.8 38.4 25.6l-17.066667 21.333334c0 34.133333 17.066667 64 51.2 64h8.533333c21.333333 0 42.666667-21.333333 42.666667-38.4 0-55.466667-89.6-55.466667-89.6-153.6v-25.6c0-64 72.533333-123.733333 140.8-123.733334 59.733333 0 132.266667 59.733333 132.266667 115.2v34.133334c0 59.733333-59.733333 128-110.933334 128h-42.666666v12.8c0 34.133333-38.4 72.533333-76.8 72.533333h-17.066667c-21.333333 0-46.933333-21.333333-51.2-38.4-25.6 8.533333-29.866667 38.4-68.266667 38.4h-12.8c-38.4 4.266667-72.533333-29.866667-72.533333-64z m-183.466667 12.8v8.533333l-110.933333 42.666667-12.8-29.866667 123.733333-21.333333z m810.666667-8.533333l-123.733333-29.866667c4.266667-4.266667 4.266667-4.266667 12.8-4.266667h119.466666l-8.533333 34.133334z m-17.066667 25.6c0 12.8-4.266667 29.866667-12.8 29.866666-8.533333 0-76.8-34.133333-110.933333-38.4v-12.8l123.733333 21.333334z m-29.866666 59.733333c-72.533333 110.933333-217.6 230.4-401.066667 230.4h-64c-170.666667 0-320-119.466667-392.533333-226.133333l4.266666-4.266667 115.2-42.666667c46.933333 72.533333 179.2 132.266667 298.666667 132.266667 68.266667 0 140.8-12.8 187.733333-34.133333 25.6-12.8 51.2-25.6 72.533334-42.666667 17.066667-8.533333 51.2-46.933333 59.733333-46.933333 42.666667-4.266667 89.6 25.6 119.466667 34.133333z m-251.733334-320c0-12.8-4.266667-12.8-12.8-12.8h-4.266666c-12.8 0-12.8 4.266667-12.8 12.8v145.066667c0 12.8 4.266667 12.8 12.8 12.8h4.266666c12.8 0 12.8-4.266667 12.8-12.8v-145.066667z m-320 0c0-12.8-8.533333-17.066667-17.066666-17.066667-12.8 0-17.066667 8.533333-17.066667 17.066667v145.066667c0 12.8 4.266667 12.8 12.8 12.8h8.533333c12.8 0 12.8-4.266667 12.8-12.8v-145.066667zM1024 537.6v4.266667c0 25.6-8.533333 38.4-8.533333 68.266666-4.266667 46.933333-8.533333 29.866667-34.133334 29.866667h-102.4l4.266667-51.2v-42.666667c0-42.666667-25.6-93.866667-42.666667-119.466666 0-76.8 0-209.066667-42.666666-238.933334-46.933333 4.266667-136.533333 51.2-157.866667 81.066667-17.066667-8.533333-64-17.066667-89.6-17.066667h-72.533333c-29.866667 0-85.333333 8.533333-106.666667 17.066667-25.6-21.333333-98.133333-81.066667-149.333333-81.066667-38.4 0-46.933333 132.266667-46.933334 183.466667C174.933333 469.333333 128 477.866667 128 554.666667v12.8l8.533333 72.533333H38.4c-12.8 0-12.8 4.266667-25.6 4.266667-4.266667-17.066667-12.8-59.733333-12.8-81.066667v-102.4C0 341.333333 85.333333 213.333333 149.333333 149.333333 209.066667 85.333333 341.333333 0 460.8 0h89.6c123.733333 0 277.333333 93.866667 337.066667 162.133333 81.066667 98.133333 136.533333 200.533333 136.533333 375.466667z" p-id="2084"></path></svg>