<?xml version="1.0" standalone="no"?><!DOCTYPE svg PUBLIC "-//W3C//DTD SVG 1.1//EN" "http://www.w3.org/Graphics/SVG/1.1/DTD/svg11.dtd"><svg t="1554210545664" class="icon" style="" viewBox="0 0 1024 1024" version="1.1" xmlns="http://www.w3.org/2000/svg" p-id="2804" xmlns:xlink="http://www.w3.org/1999/xlink" width="200" height="200"><defs><style type="text/css"></style></defs><path d="M512 1024C229.230592 1024 0 794.769408 0 512S229.230592 0 512 0s512 229.230592 512 512-229.230592 512-512 512zM216.064 366.592h-76.8v287.744h76.8V366.592z m164.864 0l-18.432 134.144-10.24-72.704c-3.627008-23.595008-6.678528-43.988992-9.216-61.44h-100.352v287.744h67.584V463.872l28.672 190.464h48.128l26.624-194.56v194.56h67.584V366.592h-100.352z m128 287.744h93.184c18.542592-0.002048 32.528384-1.007616 41.984-3.072 8.99072-1.66912 16.653312-5.117952 22.528-10.24 6.47168-4.642816 10.861568-11.53536 13.312-20.48 2.458624-8.577024 4.096-25.811968 4.096-51.2v-101.376c0-27.19744-1.041408-45.508608-3.072-54.272-1.539072-9.762816-5.705728-18.23744-12.288-25.6-7.179264-7.716864-17.29536-13.0304-30.72-16.384-12.685312-3.253248-34.330624-5.12-71.68-5.12h-57.344v287.744z m76.8-238.592c8.394752 0.003072 14.217216 0.790528 17.408 3.072 2.93376 1.083392 4.89984 3.734528 6.144 7.168 0.722944 4.01408 1.024 12.464128 1.024 25.6v111.616c0 18.47296-1.437696 30.14656-4.096 34.816-2.331648 3.995648-9.28768 6.144-20.48 6.144V415.744z m199.68-49.152h-74.752v286.72h69.632l5.12-17.408c5.933056 6.956032 12.874752 12.474368 20.48 16.384 7.472128 3.25632 18.817024 5.12 27.648 5.12 12.292096 0 22.815744-2.93888 31.744-9.216 8.612864-6.119424 14.434304-13.502464 17.408-21.504 1.65376-8.910848 3.072-21.59616 3.072-38.912v-80.896c0-16.80896-0.598016-28.132352-1.024-33.792-1.215488-4.946944-3.3792-10.53696-7.168-16.384-4.1984-5.262336-9.945088-9.489408-17.408-12.288-7.46496-3.291136-16.272384-4.868096-26.624-5.12-8.98048 0.251904-20.250624 2.115584-27.648 5.12-7.754752 3.588096-14.621696 8.891392-20.48 15.36v-93.184z m25.6 143.36v73.728c0 13.878272-0.83456 22.526976-2.048 26.624-1.59232 3.262464-8.040448 5.12-13.312 5.12-3.98336 0-7.396352-1.857536-9.216-5.12-1.214464-3.597312-2.048-11.74528-2.048-24.576v-75.776c0-12.591104 0.83456-20.810752 2.048-23.552 1.591296-3.54816 4.703232-5.12 9.216-5.12 4.66432 0 11.111424 1.57184 12.288 5.12 2.16064 4.026368 2.997248 11.96032 3.072 23.552z" p-id="2805"></path></svg>