<?xml version="1.0" standalone="no"?><!DOCTYPE svg PUBLIC "-//W3C//DTD SVG 1.1//EN" "http://www.w3.org/Graphics/SVG/1.1/DTD/svg11.dtd"><svg t="1555158575364" class="icon" style="" viewBox="0 0 1024 1024" version="1.1" xmlns="http://www.w3.org/2000/svg" p-id="4386" xmlns:xlink="http://www.w3.org/1999/xlink" width="200" height="200"><defs><style type="text/css"></style></defs><path d="M509.974877 961.384917c247.762897 0 448.693162-200.858634 448.693162-448.679859 0-247.842715-200.930265-448.698279-448.693162-448.698279-247.831458 0-448.693162 200.856587-448.693162 448.698279C61.281715 760.526283 262.143419 961.384917 509.974877 961.384917zM509.974877 120.090099c216.845747 0 392.606773 175.755909 392.606773 392.614959 0 216.84063-175.726234 392.665101-392.606773 392.665101s-392.640542-175.824471-392.640542-392.665101C117.334335 295.846008 293.1322 120.090099 509.974877 120.090099zM382.797359 752.040005c10.937097 11.011798 28.677133 11.011798 39.61423 0l214.70499-214.665081c6.730285-6.798846 8.834202-15.980973 7.29208-24.669866 1.541099-8.704243-0.596588-17.947767-7.29208-24.688285L422.408519 273.279037c-10.968819-10.937097-28.708855-10.937097-39.612183 0-11.005658 10.93198-11.005658 28.740578 0 39.674605l199.671599 199.750393L382.799406 712.36233C371.790678 723.374128 371.790678 741.108025 382.797359 752.040005z" p-id="4387"></path></svg>