<?xml version="1.0" standalone="no"?><!DOCTYPE svg PUBLIC "-//W3C//DTD SVG 1.1//EN" "http://www.w3.org/Graphics/SVG/1.1/DTD/svg11.dtd"><svg t="1555083990518" class="icon" style="" viewBox="0 0 1024 1024" version="1.1" xmlns="http://www.w3.org/2000/svg" p-id="2764" xmlns:xlink="http://www.w3.org/1999/xlink" width="200" height="200"><defs><style type="text/css"></style></defs><path d="M928.999975 1024c30.72 0 55.611077-25.836308 55.611077-57.501538V201.649231a56.556308 56.556308 0 0 0-55.611077-57.501539 56.713846 56.713846 0 0 0-55.532307 57.501539v764.849231c0 31.822769 24.891077 57.501538 55.532307 57.501538zM94.99136 1024c30.72 0 55.532308-25.836308 55.532308-57.501538V561.939692a56.556308 56.556308 0 0 0-55.532308-57.501538 56.635077 56.635077 0 0 0-55.611077 57.501538v404.401231c0 31.901538 24.812308 57.580308 55.611077 57.580308z m278.055385 0c30.72 0 55.611077-25.836308 55.611077-57.501538V57.501538A56.635077 56.635077 0 0 0 373.046745 0a56.635077 56.635077 0 0 0-55.611077 57.501538v908.996924a56.398769 56.398769 0 0 0 55.611077 57.501538z m278.055384 0c30.72 0 55.611077-25.836308 55.611077-57.501538V393.294769a56.556308 56.556308 0 0 0-55.611077-57.501538 56.713846 56.713846 0 0 0-55.611077 57.501538v573.046154a56.398769 56.398769 0 0 0 55.611077 57.580308z" p-id="2765"></path></svg>