<?xml version="1.0" standalone="no"?><!DOCTYPE svg PUBLIC "-//W3C//DTD SVG 1.1//EN" "http://www.w3.org/Graphics/SVG/1.1/DTD/svg11.dtd">
<svg t="1555148038775" class="icon" style="fill:#F5C518" viewBox="0 0 1024 1024" version="1.1" 
  xmlns="http://www.w3.org/2000/svg" p-id="2561" 
  xmlns:xlink="http://www.w3.org/1999/xlink" width="200" height="200">
  <defs>
    <style type="text/css"></style>
  </defs>
  <path d="M511.658667 0.227556C230.371556 0.227556 0.227556 230.371556 0.227556 511.658667c0 281.287111 230.144 511.431111 511.431111 511.431111 281.287111 0 511.431111-230.144 511.431111-511.431111 0-281.287111-230.144-511.431111-511.431111-511.431111z m244.764444 485.859555l-98.645333 98.645333 21.902222 138.808889c3.697778 14.620444-3.640889 29.212444-14.592 36.522667-7.310222 3.640889-14.620444 7.310222-21.902222 7.310222-7.310222 0-10.979556 0-18.289778-3.669333l-116.906667-65.735111-116.906666 65.735111c-10.922667 7.310222-25.543111 7.310222-40.163556-3.640889-10.951111-7.310222-18.261333-21.902222-14.620444-36.522667l21.930666-138.808889-95.004444-98.645333c-10.922667-10.951111-14.592-25.571556-7.281778-36.522667 3.640889-14.620444 14.620444-21.902222 29.212445-25.6l131.527111-18.232888 58.453333-127.857778c7.310222-10.979556 18.261333-21.930667 32.881778-21.930667 14.592 0 25.571556 7.310222 32.853333 21.902222l58.453333 127.886223 131.527112 21.902222c14.592 3.669333 25.571556 10.951111 29.212444 25.6 7.310222 7.281778 7.310222 21.902222-3.640889 32.853333z" p-id="2562"></path>
</svg>