<?xml version="1.0" standalone="no"?><!DOCTYPE svg PUBLIC "-//W3C//DTD SVG 1.1//EN" "http://www.w3.org/Graphics/SVG/1.1/DTD/svg11.dtd"><svg t="1555084038010" class="icon" style="" viewBox="0 0 1024 1024" version="1.1" xmlns="http://www.w3.org/2000/svg" p-id="4862" xmlns:xlink="http://www.w3.org/1999/xlink" width="200" height="200"><defs><style type="text/css"></style></defs><path d="M1023.616967 486.078254a126.332317 126.332317 0 0 0-92.633201-126.214212h-273.254164v-4.645439a549.382201 549.382201 0 0 0 18.50302-229.043759A124.206438 124.206438 0 0 0 555.844892 0a128.812509 128.812509 0 0 0-120.427098 112.159792C412.229967 327.188497 254.757463 392.618323 222.357495 401.948568H46.342603A46.65123 46.65123 0 0 0 0.045686 448.796639v532.80822A40.470434 40.470434 0 0 0 46.342603 1023.571281h773.504943a117.23828 117.23828 0 0 0 106.53015-70.114633c9.25151-18.69986 92.633201-434.663481 92.6332-434.663481A107.120671 107.120671 0 0 0 1023.616967 499.975203v-14.015053M162.124262 929.953877a28.226946 28.226946 0 0 1-55.587794 0V499.975203a28.226946 28.226946 0 0 1 55.587794 0v429.978674z" p-id="4863"></path></svg>