<?xml version="1.0" standalone="no"?><!DOCTYPE svg PUBLIC "-//W3C//DTD SVG 1.1//EN" "http://www.w3.org/Graphics/SVG/1.1/DTD/svg11.dtd"><svg t="1555083941294" class="icon" style="" viewBox="0 0 1024 1024" version="1.1" xmlns="http://www.w3.org/2000/svg" p-id="2027" xmlns:xlink="http://www.w3.org/1999/xlink" width="200" height="200"><defs><style type="text/css"></style></defs><path d="M909.176 107.693c6.405 6.469 9.485 14.999 9.315 23.49v193.602c0 17.881-14.254 32.366-31.851 32.366-17.596 0-31.851-14.485-31.851-32.366v-116.03L577.931 490.092c-12.42 12.625-32.566 12.625-45.064 0L377.036 331.741 157.511 554.824c-6.214 6.311-14.414 9.466-22.536 9.466s-16.318-3.155-22.532-9.466c-12.424-12.625-12.424-33.096 0-45.8l242.061-245.976c12.42-12.621 32.566-12.621 45.068 0l155.824 158.348L809.722 162.96H695.538c-17.596 0-31.851-14.485-31.851-32.366s14.254-32.366 31.851-32.366H886.64c0.039 0 0.071 0.004 0.11 0.007 1.002 0.004 2.004 0.054 3.002 0.151 0.598 0.061 1.179 0.169 1.767 0.259 0.429 0.068 0.86 0.115 1.289 0.201 0.673 0.133 1.324 0.313 1.979 0.489 0.344 0.093 0.691 0.166 1.03 0.27 0.644 0.194 1.271 0.435 1.901 0.673 0.347 0.129 0.701 0.245 1.045 0.389 0.577 0.241 1.133 0.522 1.696 0.795 0.383 0.191 0.776 0.36 1.154 0.565 0.489 0.266 0.953 0.565 1.427 0.853 0.432 0.266 0.867 0.511 1.289 0.799 0.368 0.248 0.712 0.529 1.069 0.795 0.503 0.37 1.009 0.727 1.491 1.133 0.074 0.061 0.141 0.133 0.216 0.194 0.708 0.601 1.405 1.22 2.071 1.892z m-771.395 556.34c19.146 0 34.656 14.734 34.656 32.924v197.538c0 18.189-15.509 32.92-34.656 32.92-19.146 0-34.656-14.731-34.656-32.92V696.956c0-18.189 15.51-32.923 34.656-32.923z m597.14-149.422c18.13 0 32.817 14.434 32.817 32.251v348.302c0 17.818-14.687 32.251-32.817 32.251s-32.817-14.433-32.817-32.251V546.863c0-17.818 14.687-32.252 32.817-32.252zM886.34 747.206c19.146 0 34.656 14.402 34.656 32.181v115.846c0 17.783-15.51 32.181-34.656 32.181s-34.655-14.399-34.655-32.181V779.387c0-17.779 15.509-32.181 34.655-32.181zM290.269 567.872c18.13 0 32.817 14.226 32.817 31.788v292.436c0 17.562-14.687 31.787-32.817 31.787s-32.817-14.226-32.817-31.787V599.659c0-17.561 14.686-31.787 32.817-31.787z m290.326 55.412c18.131 0 32.817 14.121 32.817 31.552v227.165c0 17.431-14.687 31.552-32.817 31.552s-32.817-14.12-32.817-31.552V654.836c0-17.431 14.686-31.552 32.817-31.552zM442.749 774.93c19.146 0 34.655 14.218 34.655 31.769v88.947c0 17.551-15.509 31.769-34.655 31.769s-34.656-14.218-34.656-31.769v-88.947c0.001-17.551 15.51-31.769 34.656-31.769z" p-id="2028"></path></svg>