<?xml version="1.0" standalone="no"?><!DOCTYPE svg PUBLIC "-//W3C//DTD SVG 1.1//EN" "http://www.w3.org/Graphics/SVG/1.1/DTD/svg11.dtd"><svg t="1554295783965" class="icon" style="" viewBox="0 0 1024 1024" version="1.1" xmlns="http://www.w3.org/2000/svg" p-id="2034" xmlns:xlink="http://www.w3.org/1999/xlink" width="200" height="200"><defs><style type="text/css"></style></defs><path d="M1024 512c0 283.062857-228.937143 512-512 512S0 795.062857 0 512 228.937143 0 512 0 1024 228.937143 1024 512zM512 197.485714 409.6 197.485714l0 36.571429 102.4 0L512 197.485714zM631.954286 492.251429l-8.777143-70.217143c0 0-90.697143-95.817143-114.102857-174.08L509.074286 248.685714l0 0-95.085714 0-21.211429 482.011429 67.291429 144.822857 70.948571-149.211429-16.822857-375.954286 60.708571 104.594286L631.954286 492.251429z" p-id="2035"></path></svg>